<svg width="21" height="37" viewBox="0 0 21 37" fill="none" xmlns="http://www.w3.org/2000/svg">
<path d="M20.4853 24.816C20.4853 26.1938 20.1409 27.4889 19.452 28.7013C18.7907 29.9138 17.7987 30.9333 16.476 31.76C15.1809 32.5867 13.6378 33.0827 11.8467 33.248V36.596H9.16V33.248C6.56978 33 4.47556 32.1871 2.87733 30.8093C1.27911 29.4316 0.48 27.6129 0.48 25.3533H5.52267C5.60533 26.428 5.94978 27.3236 6.556 28.04C7.16222 28.7289 8.03022 29.1698 9.16 29.3627V20.2693C7.31378 19.8009 5.812 19.3324 4.65467 18.864C3.49733 18.368 2.50533 17.5964 1.67867 16.5493C0.879556 15.5022 0.48 14.0693 0.48 12.2507C0.48 9.96355 1.27911 8.076 2.87733 6.588C4.47556 5.07244 6.56978 4.19067 9.16 3.94267V0.594666H11.8467V3.94267C14.2716 4.16311 16.2142 4.93467 17.6747 6.25733C19.1627 7.55244 20.0031 9.34356 20.196 11.6307H15.1533C15.0707 10.7764 14.74 10.0187 14.1613 9.35733C13.5827 8.66844 12.8111 8.2 11.8467 7.952V16.88C13.6929 17.3209 15.1947 17.7893 16.352 18.2853C17.5093 18.7538 18.4876 19.5116 19.2867 20.5587C20.0858 21.5782 20.4853 22.9973 20.4853 24.816ZM5.27467 12.0027C5.27467 13.1324 5.60533 14.0142 6.26667 14.648C6.95556 15.2818 7.92 15.7916 9.16 16.1773V7.828C7.97511 7.96578 7.02444 8.39289 6.308 9.10933C5.61911 9.82578 5.27467 10.7902 5.27467 12.0027ZM11.8467 29.3627C13.0591 29.1698 14.0098 28.6876 14.6987 27.916C15.3876 27.1169 15.732 26.1662 15.732 25.064C15.732 23.9618 15.3876 23.1076 14.6987 22.5013C14.0373 21.8676 13.0867 21.3578 11.8467 20.972V29.3627Z" fill="#D9D9D9"/>
</svg>
